<mxfile host="app.diagrams.net" modified="2022-04-02T07:49:45.425Z" agent="5.0 (Windows NT 10.0; Win64; x64) AppleWebKit/537.36 (KHTML, like Gecko) Chrome/99.0.4844.84 Safari/537.36" etag="mp389HsxFdBUS3DoZbAO" version="17.1.5" type="github">
  <diagram id="3epCSmDfqPfx3C1dl7kq" name="Page-1">
    <mxGraphModel dx="1806" dy="820" grid="1" gridSize="10" guides="1" tooltips="1" connect="1" arrows="1" fold="1" page="1" pageScale="1" pageWidth="827" pageHeight="1169" math="0" shadow="0">
      <root>
        <mxCell id="0" />
        <mxCell id="1" parent="0" />
        <mxCell id="ytty206KHDT913wrJCqM-1" value="&lt;div&gt;&lt;span style=&quot;font-size: 14.04pt ; font-family: &amp;quot;times new roman&amp;quot; , &amp;quot;italic&amp;quot; ; color: rgb(0 , 0 , 0) ; font-style: italic&quot;&gt;G &lt;/span&gt;&lt;span style=&quot;font-size: 14.04pt ; font-family: &amp;quot;times new roman&amp;quot; ; color: rgb(0 , 0 , 0)&quot;&gt;= (&lt;/span&gt;&lt;span style=&quot;font-size: 14.04pt ; font-family: &amp;quot;times new roman&amp;quot; , &amp;quot;italic&amp;quot; ; color: rgb(0 , 0 , 0) ; font-style: italic&quot;&gt;V&lt;/span&gt;&lt;span style=&quot;font-size: 14.04pt ; font-family: &amp;quot;times new roman&amp;quot; ; color: rgb(0 , 0 , 0)&quot;&gt;,&lt;/span&gt;&lt;span style=&quot;font-size: 14.04pt ; font-family: &amp;quot;times new roman&amp;quot; , &amp;quot;italic&amp;quot; ; color: rgb(0 , 0 , 0) ; font-style: italic&quot;&gt;E&lt;/span&gt;&lt;span style=&quot;font-size: 14.04pt ; font-family: &amp;quot;times new roman&amp;quot; ; color: rgb(0 , 0 , 0)&quot;&gt;) = (&lt;/span&gt;&lt;span style=&quot;font-size: 14.04pt ; font-family: &amp;quot;times new roman&amp;quot; , &amp;quot;italic&amp;quot; ; color: rgb(0 , 0 , 0) ; font-style: italic&quot;&gt;V&lt;/span&gt;&lt;span style=&quot;font-size: 14.04pt ; font-family: &amp;quot;times new roman&amp;quot; ; color: rgb(0 , 0 , 0)&quot;&gt;={1,2,3,4,5,6,7}, &lt;/span&gt;&lt;span style=&quot;font-size: 14.04pt ; font-family: &amp;quot;times new roman&amp;quot; , &amp;quot;italic&amp;quot; ; color: rgb(0 , 0 , 0) ; font-style: italic&quot;&gt;E&lt;/span&gt;&lt;span style=&quot;font-size: 14.04pt ; font-family: &amp;quot;times new roman&amp;quot; ; color: rgb(0 , 0 , 0)&quot;&gt;={(1,2),(1,3), (1,7),(2,4),(2,6),(2,7),&#xa;&lt;/span&gt;&lt;/div&gt;&lt;div&gt;&lt;span style=&quot;font-size: 14.04pt ; font-family: &amp;quot;times new roman&amp;quot; ; color: rgb(0 , 0 , 0)&quot;&gt; (3,5),(4,6),(4,7),(6,6),(6,7)}).&#xa;&lt;/span&gt;&lt;/div&gt;" style="text;whiteSpace=wrap;html=1;" vertex="1" parent="1">
          <mxGeometry x="60" y="30" width="530" height="60" as="geometry" />
        </mxCell>
        <mxCell id="ytty206KHDT913wrJCqM-2" value="1" style="ellipse;whiteSpace=wrap;html=1;aspect=fixed;strokeColor=#FF1414;" vertex="1" parent="1">
          <mxGeometry y="190" width="50" height="50" as="geometry" />
        </mxCell>
        <mxCell id="ytty206KHDT913wrJCqM-3" value="2" style="ellipse;whiteSpace=wrap;html=1;aspect=fixed;strokeColor=#FF1414;" vertex="1" parent="1">
          <mxGeometry x="140" y="535" width="50" height="50" as="geometry" />
        </mxCell>
        <mxCell id="ytty206KHDT913wrJCqM-4" value="3" style="ellipse;whiteSpace=wrap;html=1;aspect=fixed;strokeColor=#00FFFF;strokeWidth=6;" vertex="1" parent="1">
          <mxGeometry x="110" y="80" width="50" height="50" as="geometry" />
        </mxCell>
        <mxCell id="ytty206KHDT913wrJCqM-5" value="4" style="ellipse;whiteSpace=wrap;html=1;aspect=fixed;strokeColor=#FF1414;" vertex="1" parent="1">
          <mxGeometry x="530" y="420" width="50" height="50" as="geometry" />
        </mxCell>
        <mxCell id="ytty206KHDT913wrJCqM-6" value="5" style="ellipse;whiteSpace=wrap;html=1;aspect=fixed;strokeColor=#00FFFF;strokeWidth=6;" vertex="1" parent="1">
          <mxGeometry x="560" y="80" width="50" height="50" as="geometry" />
        </mxCell>
        <mxCell id="ytty206KHDT913wrJCqM-7" value="6" style="ellipse;whiteSpace=wrap;html=1;aspect=fixed;strokeColor=#00FFFF;strokeWidth=9;" vertex="1" parent="1">
          <mxGeometry x="770" y="500" width="50" height="50" as="geometry" />
        </mxCell>
        <mxCell id="ytty206KHDT913wrJCqM-8" value="7" style="ellipse;whiteSpace=wrap;html=1;aspect=fixed;strokeColor=#FF1414;" vertex="1" parent="1">
          <mxGeometry x="350" y="130" width="50" height="50" as="geometry" />
        </mxCell>
        <mxCell id="ytty206KHDT913wrJCqM-9" value="" style="endArrow=none;html=1;rounded=0;exitX=0.5;exitY=1;exitDx=0;exitDy=0;entryX=0;entryY=0;entryDx=0;entryDy=0;strokeColor=#FF1414;strokeWidth=6;" edge="1" parent="1" source="ytty206KHDT913wrJCqM-2" target="ytty206KHDT913wrJCqM-3">
          <mxGeometry width="50" height="50" relative="1" as="geometry">
            <mxPoint x="390" y="320" as="sourcePoint" />
            <mxPoint x="440" y="270" as="targetPoint" />
          </mxGeometry>
        </mxCell>
        <mxCell id="ytty206KHDT913wrJCqM-10" value="" style="endArrow=none;html=1;rounded=0;exitX=0.642;exitY=0.02;exitDx=0;exitDy=0;exitPerimeter=0;entryX=0;entryY=1;entryDx=0;entryDy=0;strokeColor=#00FFFF;strokeWidth=6;" edge="1" parent="1" source="ytty206KHDT913wrJCqM-2" target="ytty206KHDT913wrJCqM-4">
          <mxGeometry width="50" height="50" relative="1" as="geometry">
            <mxPoint x="390" y="320" as="sourcePoint" />
            <mxPoint x="440" y="270" as="targetPoint" />
          </mxGeometry>
        </mxCell>
        <mxCell id="ytty206KHDT913wrJCqM-11" value="" style="endArrow=none;html=1;rounded=0;exitX=0.962;exitY=0.322;exitDx=0;exitDy=0;exitPerimeter=0;entryX=0.029;entryY=0.678;entryDx=0;entryDy=0;entryPerimeter=0;strokeColor=#FF1414;strokeWidth=6;" edge="1" parent="1" source="ytty206KHDT913wrJCqM-2" target="ytty206KHDT913wrJCqM-8">
          <mxGeometry width="50" height="50" relative="1" as="geometry">
            <mxPoint x="390" y="320" as="sourcePoint" />
            <mxPoint x="440" y="270" as="targetPoint" />
          </mxGeometry>
        </mxCell>
        <mxCell id="ytty206KHDT913wrJCqM-12" value="" style="endArrow=none;html=1;rounded=0;exitX=1;exitY=0;exitDx=0;exitDy=0;entryX=0;entryY=1;entryDx=0;entryDy=0;strokeColor=#FF1414;strokeWidth=6;" edge="1" parent="1" source="ytty206KHDT913wrJCqM-3" target="ytty206KHDT913wrJCqM-5">
          <mxGeometry width="50" height="50" relative="1" as="geometry">
            <mxPoint x="390" y="320" as="sourcePoint" />
            <mxPoint x="440" y="270" as="targetPoint" />
          </mxGeometry>
        </mxCell>
        <mxCell id="ytty206KHDT913wrJCqM-13" value="" style="endArrow=none;html=1;rounded=0;exitX=1;exitY=0.5;exitDx=0;exitDy=0;entryX=0;entryY=0.5;entryDx=0;entryDy=0;strokeColor=#FFFF00;strokeWidth=9;" edge="1" parent="1" source="ytty206KHDT913wrJCqM-3" target="ytty206KHDT913wrJCqM-7">
          <mxGeometry width="50" height="50" relative="1" as="geometry">
            <mxPoint x="390" y="320" as="sourcePoint" />
            <mxPoint x="440" y="270" as="targetPoint" />
          </mxGeometry>
        </mxCell>
        <mxCell id="ytty206KHDT913wrJCqM-14" value="" style="endArrow=none;html=1;rounded=0;entryX=0.5;entryY=1;entryDx=0;entryDy=0;strokeColor=#FF9933;strokeWidth=6;" edge="1" parent="1" source="ytty206KHDT913wrJCqM-3" target="ytty206KHDT913wrJCqM-8">
          <mxGeometry width="50" height="50" relative="1" as="geometry">
            <mxPoint x="390" y="320" as="sourcePoint" />
            <mxPoint x="440" y="270" as="targetPoint" />
          </mxGeometry>
        </mxCell>
        <mxCell id="ytty206KHDT913wrJCqM-15" value="" style="endArrow=none;html=1;rounded=0;exitX=1;exitY=0.5;exitDx=0;exitDy=0;strokeColor=#00FFFF;strokeWidth=6;" edge="1" parent="1" source="ytty206KHDT913wrJCqM-4" target="ytty206KHDT913wrJCqM-6">
          <mxGeometry width="50" height="50" relative="1" as="geometry">
            <mxPoint x="390" y="320" as="sourcePoint" />
            <mxPoint x="440" y="270" as="targetPoint" />
          </mxGeometry>
        </mxCell>
        <mxCell id="ytty206KHDT913wrJCqM-16" value="" style="endArrow=none;html=1;rounded=0;exitX=0.5;exitY=1;exitDx=0;exitDy=0;entryX=1;entryY=0;entryDx=0;entryDy=0;strokeColor=#00FF00;strokeWidth=9;" edge="1" parent="1" source="ytty206KHDT913wrJCqM-5" target="ytty206KHDT913wrJCqM-7">
          <mxGeometry width="50" height="50" relative="1" as="geometry">
            <mxPoint x="390" y="320" as="sourcePoint" />
            <mxPoint x="440" y="270" as="targetPoint" />
          </mxGeometry>
        </mxCell>
        <mxCell id="ytty206KHDT913wrJCqM-17" value="" style="endArrow=none;html=1;rounded=0;exitX=0;exitY=0;exitDx=0;exitDy=0;strokeColor=#FF1414;strokeWidth=6;" edge="1" parent="1" source="ytty206KHDT913wrJCqM-5" target="ytty206KHDT913wrJCqM-8">
          <mxGeometry width="50" height="50" relative="1" as="geometry">
            <mxPoint x="390" y="320" as="sourcePoint" />
            <mxPoint x="440" y="270" as="targetPoint" />
          </mxGeometry>
        </mxCell>
        <mxCell id="ytty206KHDT913wrJCqM-18" value="" style="endArrow=none;html=1;rounded=0;entryX=1;entryY=1;entryDx=0;entryDy=0;strokeColor=#00FFFF;strokeWidth=6;" edge="1" parent="1" target="ytty206KHDT913wrJCqM-6">
          <mxGeometry width="50" height="50" relative="1" as="geometry">
            <mxPoint x="810" y="510" as="sourcePoint" />
            <mxPoint x="440" y="270" as="targetPoint" />
          </mxGeometry>
        </mxCell>
        <mxCell id="ytty206KHDT913wrJCqM-19" value="" style="endArrow=none;html=1;rounded=0;entryX=1.016;entryY=0.691;entryDx=0;entryDy=0;entryPerimeter=0;strokeColor=#00FFFF;strokeWidth=6;" edge="1" parent="1" target="ytty206KHDT913wrJCqM-8">
          <mxGeometry width="50" height="50" relative="1" as="geometry">
            <mxPoint x="790" y="500" as="sourcePoint" />
            <mxPoint x="500" y="270" as="targetPoint" />
          </mxGeometry>
        </mxCell>
      </root>
    </mxGraphModel>
  </diagram>
</mxfile>
